<svg xmlns="http://www.w3.org/2000/svg">

  <symbol id="go-back" xmlns="http://www.w3.org/2000/svg" height="100%" width="100%" viewBox="0 -960 960 960">
    <path
      d="M280-200v-80h284q63 0 109.5-40T720-420q0-60-46.5-100T564-560H312l104 104-56 56-200-200 200-200 56 56-104 104h252q97 0 166.5 63T800-420q0 94-69.5 157T564-200H280Z" />
  </symbol>

  <symbol id="send" xmlns="http://www.w3.org/2000/svg" height="100%" width="100%" viewBox="0 -960 960 960">
    <path d="M120-160v-640l760 320-760 320Zm80-120 474-200-474-200v140l240 60-240 60v140Zm0 0v-400 400Z" />
  </symbol>

</svg>